<svg xmlns="http://www.w3.org/2000/svg" xmlns:xlink="http://www.w3.org/1999/xlink" width="473" height="406" viewBox="0 0 473 406">
  <defs>
    <clipPath id="clip-path">
      <rect id="Rectangle_586" data-name="Rectangle 586" width="473" height="406" transform="translate(1242.327 148)" fill="#fff"/>
    </clipPath>
    <clipPath id="clip-path-2">
      <rect id="Rectangle_315" data-name="Rectangle 315" width="1885" height="546" transform="translate(-0.196 -0.246)" fill="#dfdfdf"/>
    </clipPath>
    <clipPath id="clip-path-3">
      <path id="Path_1594" data-name="Path 1594" d="M655.047,35.6a85.876,85.876,0,1,0-171.752,0Z" transform="translate(-483.295 50.293)" fill="#dd9500"/>
    </clipPath>
    <clipPath id="clip-path-4">
      <rect id="Rectangle_416" data-name="Rectangle 416" width="348.389" height="219.817" transform="translate(0 0)" fill="#fff"/>
    </clipPath>
    <clipPath id="clip-path-5">
      <path id="Path_1594-2" data-name="Path 1594" d="M515.33-34.272a16.021,16.021,0,0,0-16.021-16.021,16.017,16.017,0,0,0-16.014,16.021Z" transform="translate(-483.295 50.293)" fill="#dd9500"/>
    </clipPath>
  </defs>
  <g id="Mask_Group_9" data-name="Mask Group 9" transform="translate(-1242.327 -148)" clip-path="url(#clip-path)">
    <g id="Group_905" data-name="Group 905" transform="translate(1246.486 151.689)">
      <g id="Group_901" data-name="Group 901" transform="translate(0 261.745)">
        <rect id="Rectangle_517" data-name="Rectangle 517" width="59.918" height="59.918" transform="translate(383.627 79.491)" fill="#acacac"/>
        <g id="Group_899" data-name="Group 899" transform="translate(407.065 100.017)">
          <path id="Path_1974" data-name="Path 1974" d="M860.088,2483.108l3.26,5.648,3.261,5.647H853.566l3.261-5.647Z" transform="translate(-853.566 -2483.108)" fill="#fff"/>
          <rect id="Rectangle_518" data-name="Rectangle 518" width="8.097" height="8.097" transform="translate(2.473 10.769)" fill="#fff"/>
        </g>
        <rect id="Rectangle_519" data-name="Rectangle 519" width="59.918" height="59.919" transform="translate(383.627 20.181)" fill="#acacac"/>
        <g id="Group_900" data-name="Group 900" transform="translate(407.065 40.706)">
          <path id="Path_1975" data-name="Path 1975" d="M860.088,2385.442l3.26,5.648,3.261,5.648H853.566l3.261-5.648Z" transform="translate(-853.566 -2385.442)" fill="#fff"/>
          <rect id="Rectangle_520" data-name="Rectangle 520" width="8.097" height="8.097" transform="translate(2.473 10.77)" fill="#fff"/>
        </g>
        <path id="Path_1976" data-name="Path 1976" d="M929.629,2323.409" transform="translate(-476.373 -2320.374)" fill="none" stroke="#875f3e" stroke-linecap="round" stroke-miterlimit="10" stroke-width="6"/>
        <path id="Path_1977" data-name="Path 1977" d="M910.973,2350.742" transform="translate(-469.047 -2331.108)" fill="none" stroke="#875f3e" stroke-linecap="round" stroke-miterlimit="10" stroke-width="6"/>
        <path id="Path_1978" data-name="Path 1978" d="M810.283,2339l-9.311-20.586H874.25l-5.667,21.862Z" transform="translate(-425.847 -2318.41)" fill="#acacac"/>
        <line id="Line_317" data-name="Line 317" y1="14.98" x2="17.813" transform="translate(441.521 4.858)" fill="none" stroke="#acacac" stroke-linecap="round" stroke-miterlimit="10" stroke-width="2"/>
        <path id="Path_1979" data-name="Path 1979" d="M952.159,2409.813s29.754,70.234,29.754,75.2a8.476,8.476,0,0,1-8.607,8.607H934.244c-4.753,0-8.606-2.639-8.606-8.607s26.117-75.6,26.117-75.6" transform="translate(-925.638 -2354.148)" fill="#acacac"/>
        <path id="Path_1980" data-name="Path 1980" d="M961.1,2396.679l-6.085-10.541L948.93,2375.6h24.342l-6.086,10.539Z" transform="translate(-934.785 -2340.87)" fill="#acacac"/>
        <line id="Line_318" data-name="Line 318" x2="7.388" y2="30.06" transform="translate(26.519 59.511)" fill="none" stroke="#fff" stroke-linecap="round" stroke-miterlimit="10" stroke-width="1"/>
        <line id="Line_319" data-name="Line 319" x1="5.769" y1="13.056" transform="translate(20.547 39.471)" fill="none" stroke="#fff" stroke-linecap="round" stroke-miterlimit="10" stroke-width="1"/>
        <line id="Line_320" data-name="Line 320" y1="13.462" x2="2.53" transform="translate(26.519 39.168)" fill="none" stroke="#fff" stroke-linecap="round" stroke-miterlimit="10" stroke-width="1"/>
        <line id="Line_321" data-name="Line 321" x1="8.097" y2="62.145" transform="translate(18.421 59.106)" fill="none" stroke="#fff" stroke-linecap="round" stroke-miterlimit="10" stroke-width="1"/>
        <line id="Line_322" data-name="Line 322" x2="52.226" transform="translate(388.081 19.836)" fill="none" stroke="#fff" stroke-linecap="round" stroke-miterlimit="10" stroke-width="1"/>
        <line id="Line_323" data-name="Line 323" x2="66.53" transform="translate(379.934 78.019)" fill="none" stroke="#fff" stroke-linecap="round" stroke-miterlimit="10" stroke-width="1"/>
      </g>
      <g id="Group_790" data-name="Group 790" transform="translate(124.184 0)">
        <g id="Group_774" data-name="Group 774" transform="translate(0 0)">
          <g id="Group_769" data-name="Group 769" transform="translate(61.963 81.893)">
            <g id="Group_767" data-name="Group 767">
              <circle id="Ellipse_115" data-name="Ellipse 115" cx="0.671" cy="0.671" r="0.671" transform="translate(3.719)" fill="#dcaa82"/>
              <circle id="Ellipse_116" data-name="Ellipse 116" cx="0.671" cy="0.671" r="0.671" transform="translate(7.437 2.789)" fill="#dcaa82"/>
              <circle id="Ellipse_117" data-name="Ellipse 117" cx="0.671" cy="0.671" r="0.671" transform="translate(11.156 2.789)" fill="#dcaa82"/>
              <circle id="Ellipse_118" data-name="Ellipse 118" cx="0.671" cy="0.671" r="0.671" transform="translate(0 2.789)" fill="#dcaa82"/>
              <circle id="Ellipse_119" data-name="Ellipse 119" cx="0.671" cy="0.671" r="0.671" transform="translate(3.719 3.719)" fill="#dcaa82"/>
            </g>
            <g id="Group_768" data-name="Group 768" transform="translate(35.327)">
              <circle id="Ellipse_120" data-name="Ellipse 120" cx="0.671" cy="0.671" r="0.671" transform="translate(7.437)" fill="#dcaa82"/>
              <circle id="Ellipse_121" data-name="Ellipse 121" cx="0.671" cy="0.671" r="0.671" transform="translate(3.719 2.789)" fill="#dcaa82"/>
              <circle id="Ellipse_122" data-name="Ellipse 122" cx="0.671" cy="0.671" r="0.671" transform="translate(0 2.789)" fill="#dcaa82"/>
              <circle id="Ellipse_123" data-name="Ellipse 123" cx="0.671" cy="0.671" r="0.671" transform="translate(11.156 2.789)" fill="#dcaa82"/>
              <circle id="Ellipse_124" data-name="Ellipse 124" cx="0.671" cy="0.671" r="0.671" transform="translate(7.437 3.719)" fill="#dcaa82"/>
            </g>
          </g>
          <g id="Group_771" data-name="Group 771" transform="translate(0 147.848)">
            <path id="Path_1592" data-name="Path 1592" d="M655.047,35.6a85.876,85.876,0,1,0-171.752,0Z" transform="translate(-483.295 50.293)" fill="#dd9500"/>
            <g id="Group_770" data-name="Group 770" clip-path="url(#clip-path-3)">
              <path id="Path_1593" data-name="Path 1593" d="M655.047,35.6a85.876,85.876,0,1,0-171.752,0Z" transform="translate(-483.295 50.293)" fill="#dd9500"/>
            </g>
          </g>
          <g id="Group_772" data-name="Group 772" transform="translate(35.679 6.762)">
            <path id="Path_1595" data-name="Path 1595" d="M607.375-124.091a10.363,10.363,0,0,1,10.361-10.363h0A10.363,10.363,0,0,1,628.1-124.091v14.911a10.366,10.366,0,0,1-10.359,10.367h0a10.365,10.365,0,0,1-10.361-10.367" transform="translate(-527.702 197.299)" fill="#e6c8aa" stroke="#be8c69" stroke-miterlimit="10" stroke-width="3.025"/>
            <path id="Path_1596" data-name="Path 1596" d="M542.393-124.091a10.363,10.363,0,0,0-10.36-10.363h0a10.362,10.362,0,0,0-10.359,10.363v14.911a10.365,10.365,0,0,0,10.359,10.367h0a10.365,10.365,0,0,0,10.36-10.367" transform="translate(-521.674 197.299)" fill="#e6c8aa" stroke="#be8c69" stroke-miterlimit="10" stroke-width="3.025"/>
            <rect id="Rectangle_381" data-name="Rectangle 381" width="54.659" height="66.129" transform="translate(23.258 92.622)" fill="#be8c69"/>
            <path id="Path_1597" data-name="Path 1597" d="M609.711-99.195v-72.131c.022-.406,0-.807,0-1.214,0-16.3-16.329-29.514-36.381-29.514s-36.369,13.211-36.369,29.514c0,.517-.035,1.022,0,1.533v71.812a10.619,10.619,0,0,0,4.265,8.831,13.409,13.409,0,0,0,1.533,1.115c6.881,4.274,14.353,8.538,21.669,12.181a20.5,20.5,0,0,0,2.734,1.117,17.16,17.16,0,0,0,6.176,1.036,17.1,17.1,0,0,0,6.17-1.036,20.273,20.273,0,0,0,2.735-1.117c7.319-3.643,14.792-7.908,21.674-12.181a13.551,13.551,0,0,0,1.53-1.115A10.617,10.617,0,0,0,609.711-99.195Z" transform="translate(-522.748 202.054)" fill="#e6c8aa"/>
            <path id="Path_1598" data-name="Path 1598" d="M576.034-105.5a1.539,1.539,0,0,1-1.6-1.472v-27.66a1.537,1.537,0,0,1,1.6-1.469,1.541,1.541,0,0,1,1.6,1.469v27.66A1.543,1.543,0,0,1,576.034-105.5Z" transform="translate(-525.385 197.414)" fill="#dcaa82"/>
          </g>
          <path id="Path_1599" data-name="Path 1599" d="M554.89-89.379s2.369-9,21.307-9,20.359,9,20.359,9Z" transform="translate(-488.331 201.523)" fill="#363636"/>
          <path id="Path_1600" data-name="Path 1600" d="M549.568-175.526S535-188.9,536.154-137.558c-14.212-27.958-15.824-39.8,4.981-48.952S549.568-175.526,549.568-175.526Z" transform="translate(-486.262 207.891)" fill="#363636"/>
          <path id="Path_1601" data-name="Path 1601" d="M600.134-175.526s14.565-13.37,13.414,37.967c14.213-27.958,15.825-39.8-4.981-48.952S600.134-175.526,600.134-175.526Z" transform="translate(-491.257 207.891)" fill="#363636"/>
          <path id="Path_1602" data-name="Path 1602" d="M540.351-171.616s-5.5-47.932,52.6-35.719c32.164,6.761,28.851,18.193,19.482,27.053a43.665,43.665,0,0,1-33.278,11.557Z" transform="translate(-487.299 209.328)" fill="#363636"/>
          <g id="Group_773" data-name="Group 773" transform="translate(43.297 146.033)">
            <path id="Path_1603" data-name="Path 1603" d="M541.421-51.113l31.252,19.179L564.532-8.025,529.868-26.943Z" transform="translate(-529.868 52.166)" fill="#fff"/>
            <path id="Path_1604" data-name="Path 1604" d="M607.411-52.246l-31.5,20.232,8.671,24.435,34.679-20.5Z" transform="translate(-533.107 52.246)" fill="#fff"/>
          </g>
        </g>
      </g>
      <g id="Group_789" data-name="Group 789" transform="translate(49.691 197.385)">
        <path id="Path_1629" data-name="Path 1629" d="M7.286,0H315.849a7.284,7.284,0,0,1,7.284,7.284V186.436a7.282,7.282,0,0,1-7.283,7.282H7.284A7.284,7.284,0,0,1,0,186.434V7.286A7.286,7.286,0,0,1,7.286,0Z" transform="translate(12.913)" fill="#363636"/>
        <path id="Path_1636" data-name="Path 1636" d="M0,0H302.1V161.2H0Z" transform="translate(23.433 16.259)" fill="#acacac"/>
        <path id="Path_1628" data-name="Path 1628" d="M919.438,1133.125v34.008h100.983l201.115-133.686v-27.511H1110.788Z" transform="translate(-896.005 -989.677)" fill="#fff" opacity="0.182"/>
        <line id="Line_293" data-name="Line 293" x2="348.955" transform="translate(0 197.607)" fill="none" stroke="#363636" stroke-linecap="round" stroke-miterlimit="10" stroke-width="14.317"/>
      </g>
      <g id="Mask_Group_5" data-name="Mask Group 5" transform="translate(49.77 183.559)" clip-path="url(#clip-path-4)">
        <g id="Group_785" data-name="Group 785" transform="translate(10.519 15.608)">
          <path id="Path_1622" data-name="Path 1622" d="M.492,94.819,0,69.681,2.851,18.053,10.03,0s8.788,12.733,12.921,18.756,7.585,12.585,8.921,21.311,8.3,40.809,8.3,40.809L1.7,94.968" transform="translate(228.582 108.06) rotate(-16)" fill="#cf8d67"/>
          <line id="Line_285" data-name="Line 285" x2="6.677" y2="14.912" transform="translate(241.029 121.439) rotate(-16)" fill="none" stroke="#fff" stroke-linecap="round" stroke-miterlimit="10" stroke-width="0.407"/>
          <line id="Line_287" data-name="Line 287" x1="2.133" y2="11.428" transform="translate(249.373 131.164) rotate(-16)" fill="none" stroke="#fff" stroke-linecap="round" stroke-miterlimit="10" stroke-width="0.407"/>
          <g id="Group_694" data-name="Group 694" transform="translate(74.768 230.26)">
            <path id="Path_1591" data-name="Path 1591" d="M0,464" transform="translate(0 -464)" fill="none" stroke="#fff" stroke-linecap="round" stroke-width="9"/>
          </g>
          <g id="Group_778" data-name="Group 778" transform="translate(157.901 165.686)">
            <g id="Group_777" data-name="Group 777" transform="translate(0 0)">
              <circle id="Ellipse_125" data-name="Ellipse 125" cx="1.195" cy="1.195" r="1.195" fill="#000036"/>
            </g>
          </g>
          <path id="Path_1625" data-name="Path 1625" d="M.492.148,0,25.287,2.851,76.915,10.03,94.968s8.788-12.733,12.921-18.756S30.536,63.627,31.872,54.9s8.3-40.809,8.3-40.809L1.7,0" transform="translate(58.613 197.676) rotate(-175)" fill="#cf8d67"/>
          <line id="Line_289" data-name="Line 289" y1="14.912" x2="6.677" transform="translate(55.925 133.432) rotate(-175)" fill="none" stroke="#fff" stroke-linecap="round" stroke-miterlimit="10" stroke-width="0.407"/>
          <line id="Line_290" data-name="Line 290" x1="2.133" y1="11.428" transform="translate(49.893 141.1) rotate(-175)" fill="none" stroke="#fff" stroke-linecap="round" stroke-miterlimit="10" stroke-width="0.407"/>
          <path id="Path_1621" data-name="Path 1621" d="M0,0H192.822V192.486H0Z" transform="translate(56.551)" fill="#f4f4f4"/>
          <g id="Group_784" data-name="Group 784" transform="translate(74.48 193.552) rotate(-175)">
            <path id="Path_1623" data-name="Path 1623" d="M17.229,0S11.824,10.468,9.136,27.935-3.394,58.1,1.207,61.963c5.382,4.515,23.654-35.4,23.654-35.4Z" transform="translate(0 0)" fill="#cf8d67"/>
            <line id="Line_286" data-name="Line 286" y1="19.62" x2="10.058" transform="translate(14.806 26.558)" fill="none" stroke="#fff" stroke-linecap="round" stroke-miterlimit="10" stroke-width="0.407"/>
          </g>
          <path id="Path_1626" data-name="Path 1626" d="M50.367,52.049,0,40.678,9.43,0H63.648Z" transform="translate(63.406 230.381) rotate(-175)" fill="#9d0001"/>
          <g id="Group_787" data-name="Group 787" transform="translate(73.468 5.13)">
            <g id="Group_787-2" data-name="Group 787" transform="translate(0 20.737)">
              <rect id="Rectangle_383" data-name="Rectangle 383" width="79.839" height="5.184" transform="translate(85.023 0)" fill="#e0e0e0"/>
              <rect id="Rectangle_401" data-name="Rectangle 401" width="73.618" height="4.147" transform="translate(0 123.388)" fill="#e0e0e0"/>
              <rect id="Rectangle_405" data-name="Rectangle 405" width="75.692" height="4.147" transform="translate(91.245 123.388)" fill="#e0e0e0"/>
              <rect id="Rectangle_387" data-name="Rectangle 387" width="127.535" height="6.221" transform="translate(39.401 34.217)" fill="#e0e0e0"/>
              <rect id="Rectangle_399" data-name="Rectangle 399" width="31.106" height="3.111" transform="translate(36.291 93.319)" fill="#e0e0e0"/>
              <rect id="Rectangle_409" data-name="Rectangle 409" width="31.106" height="3.111" transform="translate(129.609 93.319)" fill="#e0e0e0"/>
              <rect id="Rectangle_400" data-name="Rectangle 400" width="31.106" height="4.147" transform="translate(36.291 110.945)" fill="#e0e0e0"/>
              <rect id="Rectangle_410" data-name="Rectangle 410" width="31.106" height="4.147" transform="translate(129.609 110.945)" fill="#e0e0e0"/>
              <rect id="Rectangle_388" data-name="Rectangle 388" width="127.535" height="6.221" transform="translate(39.401 41.475)" fill="#e0e0e0"/>
              <rect id="Rectangle_389" data-name="Rectangle 389" width="127.535" height="4.147" transform="translate(39.401 49.77)" fill="#e0e0e0"/>
              <rect id="Rectangle_390" data-name="Rectangle 390" width="127.535" height="4.147" transform="translate(39.401 61.175)" fill="#e0e0e0"/>
              <rect id="Rectangle_391" data-name="Rectangle 391" width="127.535" height="4.147" transform="translate(39.401 68.434)" fill="#e0e0e0"/>
              <rect id="Rectangle_392" data-name="Rectangle 392" width="127.535" height="4.147" transform="translate(39.401 76.729)" fill="#e0e0e0"/>
              <rect id="Rectangle_384" data-name="Rectangle 384" width="79.839" height="4.147" transform="translate(85.023 9.332)" fill="#e0e0e0"/>
              <rect id="Rectangle_402" data-name="Rectangle 402" width="73.618" height="3.111" transform="translate(0 132.72)" fill="#e0e0e0"/>
              <rect id="Rectangle_406" data-name="Rectangle 406" width="75.692" height="3.111" transform="translate(91.245 132.72)" fill="#e0e0e0"/>
              <rect id="Rectangle_385" data-name="Rectangle 385" width="79.839" height="4.147" transform="translate(85.023 16.59)" fill="#e0e0e0"/>
              <rect id="Rectangle_403" data-name="Rectangle 403" width="73.618" height="3.111" transform="translate(0 138.941)" fill="#e0e0e0"/>
              <rect id="Rectangle_407" data-name="Rectangle 407" width="75.692" height="3.111" transform="translate(91.245 138.941)" fill="#e0e0e0"/>
              <rect id="Rectangle_386" data-name="Rectangle 386" width="79.839" height="5.184" transform="translate(85.023 23.848)" fill="#e0e0e0"/>
              <rect id="Rectangle_404" data-name="Rectangle 404" width="73.618" height="5.184" transform="translate(0 147.236)" fill="#e0e0e0"/>
              <rect id="Rectangle_408" data-name="Rectangle 408" width="75.692" height="5.184" transform="translate(91.245 147.236)" fill="#e0e0e0"/>
              <rect id="Rectangle_393" data-name="Rectangle 393" width="30.069" height="6.221" transform="translate(0 34.217)" fill="#e0e0e0"/>
              <rect id="Rectangle_394" data-name="Rectangle 394" width="30.069" height="6.221" transform="translate(0 41.475)" fill="#e0e0e0"/>
              <rect id="Rectangle_395" data-name="Rectangle 395" width="30.069" height="4.147" transform="translate(0 49.77)" fill="#e0e0e0"/>
              <rect id="Rectangle_396" data-name="Rectangle 396" width="30.069" height="4.147" transform="translate(0 61.175)" fill="#e0e0e0"/>
              <rect id="Rectangle_397" data-name="Rectangle 397" width="30.069" height="4.147" transform="translate(0 68.434)" fill="#e0e0e0"/>
              <rect id="Rectangle_398" data-name="Rectangle 398" width="30.069" height="4.147" transform="translate(0 76.729)" fill="#e0e0e0"/>
            </g>
            <rect id="Rectangle_411" data-name="Rectangle 411" width="18.664" height="14.516" transform="translate(13.479 107.835)" fill="#0014a0"/>
            <rect id="Rectangle_413" data-name="Rectangle 413" width="17.627" height="14.47" transform="translate(105.761 107.881)" fill="#9d000a"/>
            <rect id="Rectangle_412" data-name="Rectangle 412" width="18.664" height="15.553" transform="translate(13.479 124.425)" fill="#18832c"/>
            <path id="Path_2155" data-name="Path 2155" d="M0,0H17.627V15.553H0Z" transform="translate(105.761 124.425)" fill="#2297ff"/>
            <g id="Group_788" data-name="Group 788" transform="translate(91.245 0)">
              <rect id="Rectangle_415" data-name="Rectangle 415" width="64.286" height="16.59" transform="translate(0)" fill="#363636"/>
              <text id="Personal_Info" data-name="Personal Info" transform="translate(20.184 7.111)" fill="#fff" font-size="6" font-family="FSecureSans-Bold, FSecure Sans Bold" font-weight="700" letter-spacing="-0.025em"><tspan x="-15.441" y="0">Personal Info</tspan></text>
            </g>
          </g>
          <g id="Group_783" data-name="Group 783" transform="translate(221.219 138.423) rotate(-16)">
            <path id="Path_1623-2" data-name="Path 1623" d="M17.229,62.319S11.824,51.851,9.136,34.384-3.394,4.215,1.207.356c5.382-4.515,23.654,35.4,23.654,35.4Z" transform="translate(0 0)" fill="#cf8d67"/>
            <line id="Line_286-2" data-name="Line 286" x2="10.058" y2="19.62" transform="translate(14.806 16.141)" fill="none" stroke="#fff" stroke-linecap="round" stroke-miterlimit="10" stroke-width="0.407"/>
          </g>
          <path id="Path_1624" data-name="Path 1624" d="M50.367,0,0,11.371,9.43,52.049H63.648Z" transform="translate(241.947 182.335) rotate(-16)" fill="#9d0001"/>
          <path id="Path_1630" data-name="Path 1630" d="M0,0" transform="translate(295.351 174.895) rotate(-16)" fill="none" stroke="#fff" stroke-linecap="round" stroke-width="0.407"/>
        </g>
        <path id="Path_1627" data-name="Path 1627" d="M0,0H79.5V48.52H0Z" transform="translate(82.481 21.405)" fill="#fff"/>
        <g id="Group_786" data-name="Group 786" transform="translate(102.124 26.589)">
          <g id="Group_769-2" data-name="Group 769" transform="translate(11.557 15.275)">
            <g id="Group_767-2" data-name="Group 767">
              <circle id="Ellipse_115-2" data-name="Ellipse 115" cx="0.125" cy="0.125" r="0.125" transform="translate(0.694)" fill="#dcaa82"/>
              <circle id="Ellipse_116-2" data-name="Ellipse 116" cx="0.125" cy="0.125" r="0.125" transform="translate(1.387 0.52)" fill="#dcaa82"/>
              <circle id="Ellipse_117-2" data-name="Ellipse 117" cx="0.125" cy="0.125" r="0.125" transform="translate(2.081 0.52)" fill="#dcaa82"/>
              <circle id="Ellipse_118-2" data-name="Ellipse 118" cx="0.125" cy="0.125" r="0.125" transform="translate(0 0.52)" fill="#dcaa82"/>
              <circle id="Ellipse_119-2" data-name="Ellipse 119" cx="0.125" cy="0.125" r="0.125" transform="translate(0.694 0.694)" fill="#dcaa82"/>
            </g>
            <g id="Group_768-2" data-name="Group 768" transform="translate(6.589)">
              <circle id="Ellipse_120-2" data-name="Ellipse 120" cx="0.125" cy="0.125" r="0.125" transform="translate(1.387)" fill="#dcaa82"/>
              <circle id="Ellipse_121-2" data-name="Ellipse 121" cx="0.125" cy="0.125" r="0.125" transform="translate(0.694 0.52)" fill="#dcaa82"/>
              <circle id="Ellipse_122-2" data-name="Ellipse 122" cx="0.125" cy="0.125" r="0.125" transform="translate(0 0.52)" fill="#dcaa82"/>
              <circle id="Ellipse_123-2" data-name="Ellipse 123" cx="0.125" cy="0.125" r="0.125" transform="translate(2.081 0.52)" fill="#dcaa82"/>
              <circle id="Ellipse_124-2" data-name="Ellipse 124" cx="0.125" cy="0.125" r="0.125" transform="translate(1.387 0.694)" fill="#dcaa82"/>
            </g>
          </g>
          <g id="Group_771-2" data-name="Group 771" transform="translate(0 27.577)">
            <path id="Path_1592-2" data-name="Path 1592" d="M515.33-34.272a16.021,16.021,0,0,0-16.021-16.021,16.017,16.017,0,0,0-16.014,16.021Z" transform="translate(-483.295 50.293)" fill="#dd9500"/>
            <g id="Group_770-2" data-name="Group 770" clip-path="url(#clip-path-5)">
              <path id="Path_1593-2" data-name="Path 1593" d="M515.33-34.272a16.021,16.021,0,0,0-16.021-16.021,16.017,16.017,0,0,0-16.014,16.021Z" transform="translate(-483.295 50.293)" fill="#dd9500"/>
            </g>
          </g>
          <g id="Group_772-2" data-name="Group 772" transform="translate(6.655 1.261)">
            <path id="Path_1595-2" data-name="Path 1595" d="M607.375-132.521a1.933,1.933,0,0,1,1.932-1.933h0a1.933,1.933,0,0,1,1.932,1.933v2.781a1.934,1.934,0,0,1-1.932,1.934h0a1.933,1.933,0,0,1-1.932-1.934" transform="translate(-592.514 146.176)" fill="#e6c8aa" stroke="#be8c69" stroke-miterlimit="10" stroke-width="3.025"/>
            <path id="Path_1596-2" data-name="Path 1596" d="M525.539-132.521a1.933,1.933,0,0,0-1.932-1.933h0a1.933,1.933,0,0,0-1.932,1.933v2.781a1.933,1.933,0,0,0,1.932,1.934h0a1.933,1.933,0,0,0,1.932-1.934" transform="translate(-521.674 146.176)" fill="#e6c8aa" stroke="#be8c69" stroke-miterlimit="10" stroke-width="3.025"/>
            <rect id="Rectangle_381-2" data-name="Rectangle 381" width="10.195" height="12.334" transform="translate(4.338 17.276)" fill="#be8c69"/>
            <path id="Path_1597-2" data-name="Path 1597" d="M550.517-182.869v-13.454c0-.076,0-.15,0-.226,0-3.041-3.046-5.5-6.786-5.5s-6.783,2.464-6.783,5.5c0,.1-.007.191,0,.286v13.394a1.98,1.98,0,0,0,.8,1.647,2.494,2.494,0,0,0,.286.208c1.284.8,2.677,1.593,4.042,2.272a3.831,3.831,0,0,0,.51.208,3.2,3.2,0,0,0,1.152.193,3.191,3.191,0,0,0,1.151-.193,3.8,3.8,0,0,0,.51-.208c1.365-.68,2.759-1.475,4.043-2.272a2.506,2.506,0,0,0,.285-.208A1.98,1.98,0,0,0,550.517-182.869Z" transform="translate(-534.297 202.054)" fill="#e6c8aa"/>
            <path id="Path_1598-2" data-name="Path 1598" d="M574.731-130.388a.287.287,0,0,1-.3-.275v-5.159a.287.287,0,0,1,.3-.274.287.287,0,0,1,.3.274v5.159A.288.288,0,0,1,574.731-130.388Z" transform="translate(-565.284 147.533)" fill="#dcaa82"/>
          </g>
          <path id="Path_1599-2" data-name="Path 1599" d="M554.89-96.7s.442-1.678,3.974-1.678,3.8,1.678,3.8,1.678Z" transform="translate(-542.475 117.615)" fill="#363636"/>
          <path id="Path_1600-2" data-name="Path 1600" d="M529.975-186.4s-2.716-2.494-2.5,7.082c-2.651-5.215-2.952-7.423.929-9.131S529.975-186.4,529.975-186.4Z" transform="translate(-518.167 192.439)" fill="#363636"/>
          <path id="Path_1601-2" data-name="Path 1601" d="M597.163-186.4s2.717-2.494,2.5,7.082c2.651-5.215,2.952-7.423-.929-9.131S597.163-186.4,597.163-186.4Z" transform="translate(-576.856 192.439)" fill="#363636"/>
          <path id="Path_1602-2" data-name="Path 1602" d="M540.238-202.294s-1.026-8.94,9.812-6.662c6,1.261,5.381,3.393,3.634,5.046a8.144,8.144,0,0,1-6.207,2.156Z" transform="translate(-530.343 209.328)" fill="#363636"/>
          <g id="Group_773-2" data-name="Group 773" transform="translate(8.076 27.238)">
            <path id="Path_1603-2" data-name="Path 1603" d="M532.023-51.113l5.829,3.577-1.518,4.459L529.868-46.6Z" transform="translate(-529.868 51.31)" fill="#fff"/>
            <path id="Path_1604-2" data-name="Path 1604" d="M581.787-52.246l-5.875,3.774,1.617,4.558L584-47.738Z" transform="translate(-567.928 52.246)" fill="#fff"/>
          </g>
        </g>
      </g>
    </g>
  </g>
</svg>
